<?xml version="1.0" encoding="UTF-8"?>
<svg xmlns="http://www.w3.org/2000/svg" viewBox="0 0 325.2 260">
  <defs>
    <style>
      .uuid-6be1f239-c7da-4f1a-ae13-3e8b8e2ede85 {
        fill: #60c;
      }

      .uuid-53cbcdd1-7557-4df8-8d47-c5d0eeaf8ca1 {
        fill: #96f;
      }

      .uuid-66742c0d-51bb-4175-a5e7-84b10ead049b {
        fill: #fff;
      }
    </style>
  </defs>
  <g id="uuid-54dfd0f8-5a84-4308-b674-6b57e67cffc9" data-name="Layer 2">
    <path class="uuid-53cbcdd1-7557-4df8-8d47-c5d0eeaf8ca1" d="M323.1,45.1h-93.3s-4.1,0-4.1,0c0,0-31.7,3-46.8,22.8-16,21-22.7,24.5-23.3,53l20.3,10.4s13.5,9.7,41.6,12.4c28.1,2.6,48.8-7.9,57.7-13.9,48.2-32.6,46.5-73.8,48-84.7Z"/>
    <path class="uuid-53cbcdd1-7557-4df8-8d47-c5d0eeaf8ca1" d="M0,45.1h93.3s4.1,0,4.1,0c0,0,29.9,6.5,45,26.2,16,21,17.9,22.5,18.5,51l-13.6,9s-13.5,9.7-41.6,12.4c-28.1,2.6-48.8-7.9-57.7-13.9C-.2,97.2,1.5,56,0,45.1Z"/>
    <path class="uuid-6be1f239-c7da-4f1a-ae13-3e8b8e2ede85" d="M160.6,123.1c-1.7-40.1,29.2-73.8,69.7-76.8-18.3-16.4-42.6-26.4-69.3-26.4-56.8,0-102.8,45.2-102.8,101.1s46,101.1,102.8,101.1,51.2-10.1,69.5-26.6c-37.8-3.6-68.2-34.2-69.8-72.3Z"/>
    <path class="uuid-66742c0d-51bb-4175-a5e7-84b10ead049b" d="M160.9,122.3s3.3-31.1-18.5-51.7c-23-21.7-49.1-25.5-49.1-25.5,0,0-18.5,15.7-26.2,34.4-13,31.4-8.9,56.1-8.9,56.1,0,0,18.5,9.2,52.8,8.8,34.3-.4,49.8-22.1,49.8-22.1Z"/>
  </g>
  <g id="uuid-65f72702-19eb-498b-b93f-fd386c14e457" data-name="Layer 3">
    <path class="uuid-66742c0d-51bb-4175-a5e7-84b10ead049b" d="M173.3,45.4c-7-1.6-12.3-7.9-12.3-15.4s0-.6,0-.8c0,0-.1,0-.2,0s-.1,0-.2,0c0,.3,0,.5,0,.8,0,7.5-5.3,13.8-12.3,15.4,7,1.6,12.3,7.9,12.3,15.4,0,0,0,0,.1,0s0,0,.1,0c0-7.5,5.3-13.8,12.3-15.4Z"/>
  </g>
</svg>